<svg xmlns="http://www.w3.org/2000/svg" xmlns:xlink="http://www.w3.org/1999/xlink" xmlns:lucid="lucid" width="3876" height="1504.25"><g transform="translate(717.3333333333335 269.08807942708324)" lucid:page-tab-id="0_0"><path d="M-1000-500h4500v2000h-4500z" fill="#fff"/><path d="M-716.33-214.83a6 6 0 0 1 6-6h3862a6 6 0 0 1 6 6v1443a6 6 0 0 1-6 6h-3862a6 6 0 0 1-6-6z" stroke="#3a414a" stroke-width="2" fill="#fff"/><path d="M-716.33-263.1a6 6 0 0 1 6-6h556.22a6 6 0 0 1 6 6v24.27a6 6 0 0 1-6 6h-556.23a6 6 0 0 1-6-6z" fill="#3a414a"/><use xlink:href="#a" transform="matrix(1,0,0,1,-708.3333333333335,-261.08807942708324) translate(0 16.589501953125)"/><use xlink:href="#b" transform="matrix(1,0,0,1,-708.3333333333335,-261.08807942708324) translate(42.544775390625006 16.589501953125)"/><use xlink:href="#c" transform="matrix(1,0,0,1,-708.3333333333335,-261.08807942708324) translate(144.13728515625002 16.589501953125)"/><use xlink:href="#d" transform="matrix(1,0,0,1,-708.3333333333335,-261.08807942708324) translate(181.97393554687503 16.589501953125)"/><use xlink:href="#e" transform="matrix(1,0,0,1,-708.3333333333335,-261.08807942708324) translate(225.97365234375005 16.589501953125)"/><use xlink:href="#f" transform="matrix(1,0,0,1,-708.3333333333335,-261.08807942708324) translate(300.19201171875005 16.589501953125)"/><use xlink:href="#g" transform="matrix(1,0,0,1,-708.3333333333335,-261.08807942708324) translate(334.44035156250004 16.589501953125)"/><use xlink:href="#h" transform="matrix(1,0,0,1,-708.3333333333335,-261.08807942708324) translate(375.94705078125 16.589501953125)"/><use xlink:href="#i" transform="matrix(1,0,0,1,-708.3333333333335,-261.08807942708324) translate(438.78744140625 16.589501953125)"/><use xlink:href="#j" transform="matrix(1,0,0,1,-708.3333333333335,-261.08807942708324) translate(475.99470703125 16.589501953125)"/><path d="M-654.33-122.83a6 6 0 0 1 6-6h3243a6 6 0 0 1 6 6v1259a6 6 0 0 1-6 6h-3243a6 6 0 0 1-6-6z" stroke="#8c4fff" stroke-width="3" fill="#fff" fill-opacity="0"/><path d="M-654.33-128.83h56v56h-56v-56z" stroke="#000" stroke-opacity="0" fill="#8c4fff"/><path d="M-610.97-99.4l-4.1-1.75v14.68c3.55-.48 4.1-4.16 4.1-4.3v-8.62zm-5.52 12.96v-14.7l-4.23 1.75v8.7c0 .07.63 3.86 4.24 4.26zm.44-16.44c.2-.08.4-.08.55.03l5.5 2.36c.3.12.44.38.44.64v9.16c-.23 2.02-1.88 5.7-6.35 5.7-4.32 0-5.97-3.68-6.24-5.6v-9.27c0-.25.2-.5.43-.62l5.64-2.38zm7.9.92l-7.63-3.4-7.75 3.3v9.96c0 .07-.04 4 2.35 6.47 1.26 1.33 3.06 2 5.3 2 2.27 0 4.03-.67 5.36-2 2.43-2.46 2.4-6.44 2.4-6.47v-9.86zm-1.4 17.3c-1.56 1.6-3.68 2.42-6.35 2.42-2.63 0-4.75-.8-6.32-2.43-2.82-2.87-2.7-7.28-2.7-7.47v-10.4c0-.3.15-.56.43-.64l8.44-3.56c.2-.08.4-.08.55 0l8.34 3.67c.27.1.43.37.43.63v10.34c0 .18.04 4.56-2.83 7.43zm-29.4-10.24h11.22v1.4h-11.22c-3.92 0-6.74-2.83-6.97-7.03v-.5c0-3.54 1.84-5.94 5.33-7 0-.3-.04-.66-.04-.9 0-4.07 2.23-7.64 5.64-9.04 4.63-1.87 9.84-1.25 12.74 1.55 1.06 1.03 1.88 2.17 2.47 3.5.88-.63 1.97-.93 3.3-.85 2.5.1 4.43 2.4 4.83 5.6 2.07.17 3.5 1.24 4.2 3.23l-1.3.48c-.6-1.62-1.7-2.36-3.57-2.36-.35 0-.66-.26-.66-.66-.2-3.24-2-4.82-3.57-4.9-1.33-.07-2.3.3-2.9 1.1-.16.2-.4.3-.67.27-.24-.05-.47-.23-.55-.45-.58-1.55-1.4-2.84-2.54-3.94-2.5-2.42-7.13-2.93-11.25-1.24-2.85 1.17-4.73 4.2-4.73 7.72 0 .37.04.96.08 1.33.04.38-.16.7-.5.78-3.23.8-4.87 2.72-4.87 5.78v.4c.2 3.5 2.4 5.74 5.56 5.74z" stroke="#000" stroke-opacity="0" fill="#fff"/><use xlink:href="#k" transform="matrix(1,0,0,1,-583.3333333333335,-108.83333333333326) translate(0 21.52777777777778)"/><use xlink:href="#l" transform="matrix(1,0,0,1,-583.3333333333335,-108.83333333333326) translate(52.00737847222222 21.52777777777778)"/><path d="M2090.67-62.83a6 6 0 0 1 6-6h168a6 6 0 0 1 6 6v378a6 6 0 0 1-6 6h-168a6 6 0 0 1-6-6z" stroke="#7aa116" stroke-width="3" fill="#fff" fill-opacity="0"/><path d="M2090.67-68.83h56v56h-56v-56z" stroke="#fff" stroke-opacity="0" fill="#7aa116"/><path d="M2134.05-46.66c-.16-.16-.34-.25-.56-.25h-5.16v-5.58c-.03-2.54-.97-4.7-2.84-6.4-1.9-1.84-4.15-2.75-6.77-2.75-2.65 0-4.9.83-6.8 2.62-1.9 1.7-2.87 3.86-2.9 6.4v5.65h-5.15c-.25 0-.44.08-.6.25-.15.17-.2.33-.2.58v25.3c0 .4.33.8.8.8h29.58c.46 0 .8-.4.8-.8v-25.3c0-.2-.06-.37-.2-.54zm-23.46-5.9c.02-2.13.8-3.87 2.36-5.3 1.62-1.5 3.52-2.2 5.74-2.2 2.2 0 4.12.76 5.7 2.25 1.54 1.4 2.32 3.2 2.32 5.32v5.57h-16.16zm22.08 30.95h-28.02v-23.73h28.02z" stroke="#fff" stroke-opacity="0" fill="#fff"/><path d="M2117.86-31.52v6.24h1.6v-6.23c2.13-.4 3.63-2.2 3.64-4.36 0-2.43-1.98-4.4-4.42-4.43-2.2-.02-4.05 1.5-4.42 3.7-.4 2.4 1.2 4.67 3.6 5.08zm.82-7.16c.8 0 1.45.27 2 .82.55.56.83 1.22.82 2 0 1.54-1.22 2.8-2.76 2.82h-.06c-1.55.12-2.92-1.05-3.03-2.6-.12-1.57 1.05-2.94 2.6-3.04.16-.02.28-.02.43 0z" stroke="#fff" stroke-opacity="0" fill="#fff"/><use xlink:href="#m" transform="matrix(1,0,0,1,2161.6666666666665,-48.83333333333326) translate(0 21.52777777777778)"/><use xlink:href="#n" transform="matrix(1,0,0,1,2161.6666666666665,-48.83333333333326) translate(0 53.79340277777778)"/><use xlink:href="#o" transform="matrix(1,0,0,1,2161.6666666666665,-48.83333333333326) translate(0 86.05902777777777)"/><path d="M2090.67 627.17a6 6 0 0 1 6-6h468a6 6 0 0 1 6 6v298a6 6 0 0 1-6 6h-468a6 6 0 0 1-6-6z" stroke="#7aa116" stroke-width="3" fill="#fff" fill-opacity="0"/><path d="M2090.67 621.17h56v56h-56v-56z" stroke="#fff" stroke-opacity="0" fill="#7aa116"/><path d="M2134.05 643.34c-.16-.16-.34-.25-.56-.25h-5.16v-5.58c-.03-2.54-.97-4.7-2.84-6.4-1.9-1.84-4.15-2.75-6.77-2.75-2.65 0-4.9.83-6.8 2.62-1.9 1.7-2.87 3.86-2.9 6.4v5.65h-5.15c-.25 0-.44.08-.6.25-.15.17-.2.33-.2.58v25.3c0 .4.33.8.8.8h29.58c.46 0 .8-.4.8-.8v-25.3c0-.2-.06-.37-.2-.54zm-23.46-5.9c.02-2.13.8-3.87 2.36-5.3 1.62-1.5 3.52-2.2 5.74-2.2 2.2 0 4.12.76 5.7 2.25 1.54 1.4 2.32 3.2 2.32 5.32v5.57h-16.16zm22.08 30.95h-28.02v-23.73h28.02z" stroke="#fff" stroke-opacity="0" fill="#fff"/><path d="M2117.86 658.48v6.24h1.6v-6.23c2.13-.4 3.63-2.2 3.64-4.36 0-2.43-1.98-4.4-4.42-4.43-2.2-.02-4.05 1.5-4.42 3.7-.4 2.4 1.2 4.67 3.6 5.08zm.82-7.16c.8 0 1.45.27 2 .82.55.56.83 1.22.82 2 0 1.54-1.22 2.8-2.76 2.82h-.06c-1.55.12-2.92-1.05-3.03-2.6-.12-1.57 1.05-2.94 2.6-3.04.16-.02.28-.02.43 0z" stroke="#fff" stroke-opacity="0" fill="#fff"/><use xlink:href="#p" transform="matrix(1,0,0,1,2161.6666666666665,641.1666666666667) translate(0 21.52777777777778)"/><use xlink:href="#q" transform="matrix(1,0,0,1,2161.6666666666665,641.1666666666667) translate(70.64887152777777 21.52777777777778)"/><use xlink:href="#r" transform="matrix(1,0,0,1,2161.6666666666665,641.1666666666667) translate(151.25868055555554 21.52777777777778)"/><path d="M2120.67-8.83h120v120h-120v-120z" stroke="#000" stroke-opacity="0" fill="#ed7100"/><path d="M2161.18 70.66h37.46V33.19h-37.46v37.45zm40.5-37.47h5.95v2.93h-5.96v6.05h5.96v3.02h-5.96v4.45h5.96v3.03h-5.96v5.96h5.96v3.03h-5.96v5.96h5.96v3.03h-5.96v.25c0 1.52-1.26 2.78-2.78 2.78h-.26v5.96h-2.94v-5.96h-6.04v5.96h-3.03v-5.96h-4.45v5.96h-3.02v-5.96h-5.97v5.96h-3.03v-5.96h-5.97v5.96h-3.02v-5.96h-.25c-1.5 0-2.77-1.26-2.77-2.77v-.25h-4.46v-3.02h4.46v-5.96h-4.46v-3.03h4.46v-5.96h-4.46v-3.02h4.46V45.2h-4.46v-3.02h4.46v-6.05h-4.46V33.2h4.46v-.26c0-1.5 1.26-2.77 2.77-2.77h.25V24.2h3.02v5.97h5.97V24.2h3.02v5.97h5.96V24.2h3.02v5.97h4.45V24.2h3.03v5.97h6.04V24.2h2.94v5.97h.26c1.5 0 2.77 1.26 2.77 2.77v.25zm-19.5 56.77c0 .1-.1.17-.17.17h-40.14c-.1 0-.17-.08-.17-.17V49.82c0-.08.08-.16.16-.16h8.82v-3.03h-8.82c-1.77 0-3.2 1.43-3.2 3.2v40.14c0 1.77 1.43 3.2 3.2 3.2H2182c1.78 0 3.2-1.43 3.2-3.2v-7.3h-3.02v7.3zm40.5-77.6V52.5c0 1.77-1.44 3.2-3.2 3.2h-8.82v-3.02h8.82c.08 0 .16-.1.16-.17V12.37c0-.08-.08-.17-.16-.17h-40.16c-.08 0-.16.08-.16.16v8.82h-3.03v-8.82c0-1.76 1.43-3.2 3.2-3.2h40.14c1.77 0 3.2 1.44 3.2 3.2z" stroke="#000" stroke-opacity="0" fill="#fff"/><use xlink:href="#s" transform="matrix(1,0,0,1,2090.6666666666665,120.16666666666674) translate(20.57183159722223 21.52777777777778)"/><use xlink:href="#t" transform="matrix(1,0,0,1,2090.6666666666665,120.16666666666674) translate(69.96419270833334 21.52777777777778)"/><use xlink:href="#u" transform="matrix(1,0,0,1,2090.6666666666665,120.16666666666674) translate(24.67339409722223 53.79340277777778)"/><use xlink:href="#v" transform="matrix(1,0,0,1,2090.6666666666665,120.16666666666674) translate(74.90125868055557 53.79340277777778)"/><path d="M2420.67 681.17h120v120h-120v-120z" stroke="#000" stroke-opacity="0" fill="#ed7100"/><path d="M2461.18 760.65h37.46V723.2h-37.46v37.45zm40.5-37.46h5.95v2.93h-5.96v6.05h5.96v3.02h-5.96v4.45h5.96v3.03h-5.96v5.96h5.96v3.03h-5.96v5.96h5.96v3.02h-5.96v.26c0 1.52-1.26 2.78-2.78 2.78h-.26v5.96h-2.94v-5.96h-6.04v5.96h-3.03v-5.96h-4.45v5.96h-3.02v-5.96h-5.97v5.96h-3.03v-5.96h-5.97v5.96h-3.02v-5.96h-.25c-1.5 0-2.77-1.26-2.77-2.77v-.25h-4.46v-3.02h4.46v-5.96h-4.46v-3.03h4.46v-5.96h-4.46v-3.02h4.46v-4.46h-4.46v-3.02h4.46v-6.05h-4.46v-2.94h4.46v-.26c0-1.5 1.26-2.77 2.77-2.77h.25v-5.97h3.02v5.97h5.97v-5.97h3.02v5.97h5.96v-5.97h3.02v5.97h4.45v-5.97h3.03v5.97h6.04v-5.97h2.94v5.97h.26c1.5 0 2.77 1.26 2.77 2.77v.25zm-19.5 56.77c0 .1-.1.17-.17.17h-40.14c-.1 0-.17-.08-.17-.16v-40.16c0-.08.08-.17.16-.17h8.82v-3.02h-8.82c-1.77 0-3.2 1.43-3.2 3.2v40.14c0 1.77 1.43 3.2 3.2 3.2H2482c1.78 0 3.2-1.43 3.2-3.2v-7.3h-3.02v7.3zm40.5-77.6v40.14c0 1.77-1.44 3.2-3.2 3.2h-8.82v-3.02h8.82c.08 0 .16-.08.16-.17v-40.14c0-.1-.08-.17-.16-.17h-40.16c-.08 0-.16.07-.16.16v8.82h-3.03v-8.82c0-1.76 1.43-3.2 3.2-3.2h40.14c1.77 0 3.2 1.44 3.2 3.2z" stroke="#000" stroke-opacity="0" fill="#fff"/><use xlink:href="#s" transform="matrix(1,0,0,1,2390.6666666666665,810.1666666666667) translate(20.57183159722223 21.52777777777778)"/><use xlink:href="#t" transform="matrix(1,0,0,1,2390.6666666666665,810.1666666666667) translate(69.96419270833334 21.52777777777778)"/><use xlink:href="#u" transform="matrix(1,0,0,1,2390.6666666666665,810.1666666666667) translate(24.67339409722223 53.79340277777778)"/><use xlink:href="#v" transform="matrix(1,0,0,1,2390.6666666666665,810.1666666666667) translate(74.90125868055557 53.79340277777778)"/><path d="M-538.4 81.9h-4.1V33.52c0-1.08-.7-2.04-1.67-2.52l-.24-.1c-5.53-2.4-11.17-5.05-19.33-5.05-8.52 0-14.76 2.76-21 5.88-.96.48-1.56 1.44-1.56 2.4V81.9h-3.95V30.3c6.72-5.4 16.32-8.53 26.52-8.53 9.6 0 18.72 2.76 25.32 7.56V81.9zm-25.33-65.53c-12 0-23.4 3.84-31.08 10.56-.6.6-.85 1.32-.85 2.04v55.56c0 1.56 1.2 2.76 2.64 2.76h9.47c1.56 0 2.76-1.2 2.76-2.77V35.8c5.28-2.5 10.32-4.43 17.04-4.43 6.36 0 11.04 1.8 15.72 3.96v49.2c0 1.56 1.2 2.76 2.75 2.76h9.6c1.44 0 2.64-1.2 2.64-2.77V27.9c0-.73-.37-1.57-.97-2.05-7.56-6.12-18.48-9.48-29.76-9.48zm-.6 89.28c-30.12 0-54.48-24.36-54.48-54.48 0-30.12 24.35-54.48 54.47-54.48 30.12 0 54.48 24.35 54.48 54.47 0 30.12-24.36 54.48-54.48 54.48zm0-114.48c-33.12 0-60 26.88-60 60 0 33.12 26.88 60 60 60 33.12 0 60-26.88 60-60 0-33.12-26.88-60-60-60z" stroke="#000" stroke-opacity="0" fill="#8c4fff"/><use xlink:href="#w" transform="matrix(1,0,0,1,-654.3333333333335,120.16666666666674) translate(0.5414496527777715 21.52777777777778)"/><use xlink:href="#x" transform="matrix(1,0,0,1,-654.3333333333335,120.16666666666674) translate(87.96549479166666 21.52777777777778)"/><path d="M-84.33 35.6v31.14c0 1.54-1.2 2.72-2.76 2.72h-114.47c-1.56 0-2.76-1.18-2.76-2.72V35.6c0-1.54 1.2-2.72 2.76-2.72H-87.1c1.57 0 2.77 1.18 2.77 2.7zm0 40.7v31.15c0 1.54-1.2 2.72-2.76 2.72h-114.47c-1.56 0-2.76-1.18-2.76-2.72V76.3c0-1.53 1.2-2.7 2.76-2.7H-87.1c1.57 0 2.77 1.17 2.77 2.7zm0-81.42v31.15c0 1.54-1.2 2.72-2.76 2.72h-114.47c-1.56 0-2.76-1.18-2.76-2.72V-5.12c0-1.53 1.2-2.7 2.76-2.7H-87.1c1.57 0 2.77 1.17 2.77 2.7zM-198.8 64.03h108.95V38.3H-198.8zm0 40.7h108.95V79.02l-108.96.02zm0-81.4h108.95V-2.4H-198.8zm95.5 33.38c-.95-1.4-1.3-3.53-1.3-6.36 0-2.83.35-4.96 1.3-6.37.85-1.53 2.17-2.24 3.85-2.24 1.68 0 3 .7 3.84 2.24.95 1.4 1.43 3.54 1.43 6.37s-.48 4.96-1.44 6.5c-.85 1.4-2.17 2.1-3.85 2.1-1.68.02-3-.7-3.84-2.23zm0 41.67c-.95-1.54-1.3-3.66-1.3-6.38 0-2.84.35-4.96 1.3-6.5.85-1.4 2.17-2.12 3.85-2.12 1.68 0 3 .7 3.84 2.13.95 1.54 1.43 3.66 1.43 6.5 0 2.7-.48 4.95-1.44 6.37-.85 1.4-2.17 2.24-3.85 2.24-1.68 0-3-.82-3.84-2.23zm0-80.83c-.95-1.42-1.3-3.66-1.3-6.38 0-2.83.35-4.95 1.3-6.5.85-1.4 2.17-2.1 3.85-2.1 1.68 0 3 .7 3.84 2.1.95 1.55 1.43 3.67 1.43 6.5 0 2.84-.48 4.96-1.44 6.38-.85 1.4-2.17 2.24-3.85 2.24-1.68 0-3-.83-3.84-2.24zm-18.1 0c-.85-1.42-1.33-3.66-1.33-6.38 0-2.83.48-4.95 1.32-6.5.95-1.4 2.15-2.1 3.95-2.1 1.68 0 3 .7 3.84 2.1.95 1.55 1.3 3.67 1.3 6.5 0 2.84-.35 4.96-1.3 6.38-.85 1.4-2.17 2.24-3.85 2.24-1.8 0-3-.83-3.96-2.24zm-17.77 39.4c-.84-1.3-1.32-3.3-1.32-6 0-2.96.5-5.2 1.57-6.85.96-1.55 2.4-2.37 4.2-2.37.6 0 1.2.12 1.8.23.6.12 1.08.36 1.56.6v1.76c-.48-.23-.96-.35-1.44-.47-.6-.12-1.1-.23-1.57-.23-1.2 0-2.04.47-2.64 1.4-.6.95-.97 2.5-1.1 4.6 1.1-.7 2.17-.93 3.37-.93 1.32 0 2.28.34 3.12 1.3.7.93 1.07 2.1 1.07 3.53 0 1.65-.36 3.06-1.32 4-.84.95-2.04 1.42-3.48 1.42-1.8 0-3-.6-3.84-2zm0-39.17c-.84-1.3-1.32-3.3-1.32-6.13 0-2.95.5-5.2 1.57-6.73.96-1.64 2.4-2.35 4.2-2.35.6 0 1.2 0 1.8.24.6.1 1.08.22 1.56.46v1.77c-.48-.12-.96-.36-1.44-.47-.6-.12-1.1-.12-1.57-.12-1.2 0-2.04.47-2.64 1.42-.6.94-.97 2.47-1.1 4.48 1.1-.6 2.17-.95 3.37-.95 1.32 0 2.28.47 3.12 1.4.7.84 1.07 2.02 1.07 3.55 0 1.65-.36 2.95-1.32 3.9-.84 1.06-2.04 1.53-3.48 1.53-1.8 0-3-.7-3.84-2zm0 80.83c-.84-1.3-1.32-3.42-1.32-6.13 0-2.95.5-5.2 1.57-6.73.96-1.65 2.4-2.36 4.2-2.36.6 0 1.2 0 1.8.24.6.1 1.08.23 1.56.47v1.76c-.48-.12-.96-.36-1.44-.47-.6-.13-1.1-.13-1.57-.13-1.2 0-2.04.47-2.64 1.42-.6.93-.97 2.46-1.1 4.47 1.1-.6 2.17-.95 3.37-.95 1.32 0 2.28.48 3.12 1.3.7.95 1.07 2.13 1.07 3.66 0 1.65-.36 2.95-1.32 3.9-.84.94-2.04 1.53-3.48 1.53-1.8 0-3-.7-3.84-2zm26.52-.35v2h-9.48v-1.77c1.68-2.12 3-3.9 3.96-5.07.84-1.3 1.44-2.35 1.92-3.18.36-.82.48-1.53.48-2.36 0-1.65-.6-2.47-2.04-2.47-.97 0-2.3.46-3.97 1.52v-2c.84-.6 1.56-.95 2.28-1.2.6-.22 1.45-.34 2.17-.34 1.32 0 2.28.36 3 1.18.72.7 1.08 1.77 1.08 3.2 0 .7-.12 1.52-.48 2.23-.24.8-.84 1.76-1.68 2.94-.73 1.18-2.17 2.95-4.1 5.3zM-161 17.42v2h-9.5v-1.77c1.7-2.12 3-3.9 3.85-5.07.96-1.3 1.56-2.36 1.92-3.2.36-.8.6-1.52.6-2.35 0-1.65-.72-2.47-2.04-2.47-1.08 0-2.4.6-3.96 1.53v-2c.72-.6 1.44-.96 2.16-1.2.72-.23 1.44-.35 2.16-.35 1.3 0 2.4.35 3.1 1.18.73.7 1.1 1.77 1.1 3.2 0 .7-.25 1.52-.5 2.23-.35.82-.83 1.77-1.67 2.95-.84 1.2-2.16 2.96-4.2 5.32zm0 80.83v2h-9.5v-1.77c1.7-2.12 3-3.9 3.85-5.07.96-1.3 1.56-2.35 1.92-3.18.36-.82.6-1.53.6-2.36 0-1.65-.72-2.47-2.04-2.47-1.08 0-2.4.46-3.96 1.52v-2c.72-.6 1.44-.95 2.16-1.2.72-.22 1.44-.34 2.16-.34 1.3 0 2.4.36 3.1 1.18.73.7 1.1 1.77 1.1 3.2 0 .7-.25 1.52-.5 2.23-.35.8-.83 1.76-1.67 2.94s-2.16 2.95-4.2 5.3zm0-41.54v2.02h-9.5v-1.9c1.7-2.1 3-3.77 3.85-5.06.96-1.18 1.56-2.24 1.92-3.07.36-.84.6-1.66.6-2.37 0-1.65-.72-2.48-2.04-2.48-1.08 0-2.4.47-3.96 1.53v-2.12c.72-.47 1.44-.94 2.16-1.18.72-.23 1.44-.35 2.16-.35 1.3 0 2.4.47 3.1 1.18.73.83 1.1 1.9 1.1 3.3 0 .72-.25 1.43-.5 2.25-.35.7-.83 1.77-1.67 2.95-.84 1.07-2.16 2.84-4.2 5.3zm58.8 35.3c0 2.24.23 4 .7 5.07.37 1.06 1.1 1.53 2.05 1.53.96 0 1.68-.47 2.16-1.53.37-1.06.6-2.83.6-5.07 0-2.36-.23-4.14-.6-5.08-.47-1.06-1.2-1.65-2.15-1.65-.96 0-1.68.6-2.04 1.65-.47.94-.7 2.72-.7 5.08zm0-80.84c0 2.25.23 4.02.7 5.08.37 1.06 1.1 1.53 2.05 1.53.96 0 1.68-.47 2.16-1.53.37-1.06.6-2.83.6-5.07 0-2.37-.23-4.02-.6-5.08-.47-1.07-1.2-1.66-2.15-1.66-.96 0-1.68.6-2.04 1.65-.47 1.05-.7 2.7-.7 5.06zm0 39.18c0 2.36.23 4 .7 5.07.37 1.08 1.1 1.67 2.05 1.67.96 0 1.68-.6 2.16-1.66.37-1.05.6-2.7.6-5.06 0-2.36-.23-4-.6-5.07-.47-1.07-1.2-1.54-2.15-1.54-.96 0-1.68.48-2.04 1.54-.47 1.06-.7 2.7-.7 5.07zm-18-39.18c0 2.25.23 4.02.6 5.08.47 1.06 1.2 1.53 2.15 1.53.96 0 1.68-.47 2.04-1.53.47-1.06.7-2.83.7-5.07 0-2.37-.23-4.02-.7-5.08-.37-1.07-1.1-1.66-2.05-1.66-.96 0-1.68.6-2.16 1.65-.37 1.05-.6 2.7-.6 5.06zm-61.1 8.27l5.4-14.64h-7.3v-2h9.7v1.76l-5.27 14.87zm0 39.3l5.4-14.64h-7.3v-2.02h9.7v1.77l-5.27 14.87zm0 41.52l5.4-14.63h-7.3v-2h9.7v1.77l-5.27 14.85zm-9.35-94.98l-3.84 1.77v-1.9l4.1-2.35h2.15v16.63h-2.4zm42.72 14.16V5.27l-3.84 1.77v-1.9l3.96-2.35h2.27v16.63zm-42.72 80.83V86.08l-3.84 1.77v-1.9l4.1-2.35h2.15v16.63zm42.72 0V86.08l-3.84 1.77v-1.9l3.96-2.35h2.27v16.63zm-42.72-41.54V44.56l-3.84 1.77v-2l4.1-2.25h2.15v16.64zm42.72 0V44.56l-3.84 1.77v-2l3.96-2.25h2.27v16.64zm30.36 0V44.56l-3.84 1.77v-2l3.95-2.25h2.28v16.64zm-20.52 34.22c0 2 .25 3.42.73 4.37.36.95 1.08 1.42 2.04 1.42 1.68 0 2.4-1.18 2.4-3.42 0-1.06-.12-1.9-.6-2.36-.48-.6-1.08-.83-1.92-.83-.84 0-1.68.25-2.64.6zm0-80.83c0 2.02.25 3.43.73 4.38.36.94 1.08 1.4 2.04 1.4 1.68 0 2.4-1.17 2.4-3.4 0-1.07-.12-1.9-.6-2.37-.48-.58-1.08-.82-1.92-.82-.84 0-1.68.24-2.64.7zm0 39.3c0 1.9.25 3.43.73 4.25.36.95 1.08 1.42 2.04 1.42 1.68 0 2.4-1.06 2.4-3.3 0-1.07-.12-1.9-.6-2.5-.48-.46-1.08-.8-1.92-.8-.84 0-1.68.23-2.64.7zm11.65 7.55c-.48 0-.84-.23-1.2-.47-.24-.23-.36-.7-.36-1.06 0-.47.1-.94.35-1.18.36-.23.72-.35 1.2-.35.36 0 .72.1 1.08.34.24.24.36.7.36 1.18 0 .35-.13.83-.37 1.06-.36.24-.72.48-1.08.48zm0 41.54c-.48 0-.84-.13-1.2-.48-.24-.24-.36-.6-.36-1.06 0-.47.1-.83.35-1.06.36-.36.72-.48 1.2-.48.36 0 .72.12 1.08.47.24.23.36.58.36 1.06 0 .47-.13.82-.37 1.06-.36.35-.72.47-1.08.47zm-30.48-41.55c-.36 0-.72-.23-1.08-.47-.25-.23-.37-.7-.37-1.06 0-.47.12-.94.36-1.18.35-.23.7-.35 1.07-.35.48 0 .84.1 1.2.34.24.24.36.7.36 1.18 0 .35-.12.83-.36 1.06-.36.24-.72.48-1.2.48zm0 41.54c-.36 0-.72-.13-1.08-.48-.25-.24-.37-.6-.37-1.06 0-.47.12-.83.36-1.06.35-.36.7-.48 1.07-.48.48 0 .84.12 1.2.47.24.23.36.58.36 1.06 0 .47-.12.82-.36 1.06-.36.35-.72.47-1.2.47zm30.48-80.84c-.48 0-.84-.12-1.2-.47-.24-.25-.36-.6-.36-1.07 0-.47.1-.83.35-1.06.36-.36.72-.48 1.2-.48.36 0 .72.1 1.08.46.24.24.36.6.36 1.07 0 .47-.13.82-.37 1.06-.36.34-.72.46-1.08.46zm-30.48 0c-.36 0-.72-.12-1.08-.47-.25-.25-.37-.6-.37-1.07 0-.47.12-.83.36-1.06.35-.36.7-.48 1.07-.48.48 0 .84.1 1.2.46.24.24.36.6.36 1.07 0 .47-.12.82-.36 1.06-.36.34-.72.46-1.2.46zm48.48 39.3c-.48 0-.84-.24-1.08-.48-.36-.23-.48-.7-.48-1.06 0-.47.1-.94.47-1.18.24-.23.6-.35 1.08-.35.48 0 .84.1 1.08.34.24.24.48.7.48 1.18 0 .35-.23.83-.47 1.06-.24.24-.6.48-1.08.48zm0 41.53c-.48 0-.84-.13-1.08-.48-.36-.24-.48-.6-.48-1.06 0-.47.1-.83.47-1.06.24-.36.6-.48 1.08-.48.48 0 .84.12 1.08.47.24.23.48.58.48 1.06 0 .47-.23.82-.47 1.06-.24.35-.6.47-1.08.47zm0-80.84c-.48 0-.84-.12-1.08-.47-.36-.25-.48-.6-.48-1.07 0-.47.1-.83.47-1.06.24-.36.6-.48 1.08-.48.48 0 .84.1 1.08.46.24.24.48.6.48 1.07 0 .47-.23.82-.47 1.06-.24.34-.6.46-1.08.46z" stroke="#000" stroke-opacity="0" fill="#8c4fff"/><use xlink:href="#p" transform="matrix(1,0,0,1,-234.33333333333348,119.16666666666674) translate(24.450954861111114 21.52777777777778)"/><use xlink:href="#y" transform="matrix(1,0,0,1,-234.33333333333348,119.16666666666674) translate(95.09982638888889 21.52777777777778)"/><use xlink:href="#z" transform="matrix(1,0,0,1,-234.33333333333348,119.16666666666674) translate(61.430121527777786 53.79340277777778)"/><path d="M302.07 79.5V73h6.48v6.5h-6.48zm-18.84 0V73h6.36v6.5h-6.37zm-21.48 0V73h6.48v6.5h-6.48zm-18.96 0V73h6.23v6.5h-6.24zm16.55-47.77V15.77H292v15.96h-32.65zM311.2 67.5H307v-9.13c0-1.56-1.2-2.76-2.65-2.76h-6.84v-9.23c0-1.44-1.2-2.64-2.75-2.64h-16.32v-6.48h16.32c1.56 0 2.76-1.32 2.76-2.76V13c0-1.55-1.2-2.75-2.75-2.75H256.6c-1.57 0-2.77 1.2-2.77 2.76v21.5c0 1.43 1.2 2.75 2.76 2.75h16.3v6.48h-16.3c-1.57 0-2.77 1.2-2.77 2.64v9.24H247c-1.45 0-2.65 1.2-2.65 2.77v9.12h-4.2c-1.56 0-2.76 1.3-2.76 2.75v12c0 1.44 1.2 2.64 2.75 2.64h11.64c1.55 0 2.75-1.2 2.75-2.65v-12c0-1.44-1.2-2.76-2.76-2.76h-2.05V61h11.28v6.5H259c-1.57 0-2.77 1.3-2.77 2.75v12c0 1.44 1.2 2.64 2.76 2.64h11.87c1.56 0 2.76-1.2 2.76-2.65v-12c0-1.44-1.2-2.76-2.76-2.76h-4.44v-9.13c0-1.56-1.2-2.76-2.64-2.76h-4.45v-6.47H292v6.48h-4.45c-1.44 0-2.64 1.2-2.64 2.77v9.12h-4.43c-1.56 0-2.76 1.3-2.76 2.75v12c0 1.44 1.2 2.64 2.77 2.64h11.88c1.56 0 2.76-1.2 2.76-2.65v-12c0-1.44-1.2-2.76-2.75-2.76h-2.04V61h11.3v6.5h-2.3c-1.43 0-2.63 1.3-2.63 2.75v12c0 1.44 1.2 2.64 2.64 2.64h11.9c1.55 0 2.75-1.2 2.75-2.65v-12c0-1.44-1.2-2.76-2.76-2.76zm-35.53 38.27c-30.12 0-54.6-24.48-54.6-54.6s24.48-54.6 54.6-54.6 54.6 24.48 54.6 54.6-24.48 54.6-54.6 54.6zm0-114.6c-33.12 0-60 26.88-60 60 0 33.12 26.88 60 60 60 33.12 0 60-26.88 60-60 0-33.12-26.88-60-60-60z" stroke="#000" stroke-opacity="0" fill="#8c4fff"/><use xlink:href="#A" transform="matrix(1,0,0,1,185.66666666666652,120.16666666666674) translate(1.876085069444457 21.52777777777778)"/><use xlink:href="#B" transform="matrix(1,0,0,1,185.66666666666652,120.16666666666674) translate(125.93207465277776 21.52777777777778)"/><use xlink:href="#C" transform="matrix(1,0,0,1,185.66666666666652,120.16666666666674) translate(43.98763020833333 53.79340277777778)"/><path d="M635.67-2.83a6 6 0 0 1 6-6h148a6 6 0 0 1 6 6v108a6 6 0 0 1-6 6h-148a6 6 0 0 1-6-6z" stroke="#ff80df" stroke-width="2" fill="#fff0fb"/><use xlink:href="#D" transform="matrix(1,0,0,1,647.6666666666665,3.1666666666667425) translate(24.331380208333343 24.52777777777778)"/><use xlink:href="#E" transform="matrix(1,0,0,1,647.6666666666665,3.1666666666667425) translate(35.67578125 56.79340277777778)"/><use xlink:href="#F" transform="matrix(1,0,0,1,647.6666666666665,3.1666666666667425) translate(13.111762152777771 89.05902777777777)"/><path d="M1095.67-2.83a6 6 0 0 1 6-6h148a6 6 0 0 1 6 6v108a6 6 0 0 1-6 6h-148a6 6 0 0 1-6-6z" stroke="#ff80df" stroke-width="2" fill="#fff0fb"/><use xlink:href="#G" transform="matrix(1,0,0,1,1107.6666666666665,3.1666666666667425) translate(34.47677951388889 39.52777777777778)"/><use xlink:href="#H" transform="matrix(1,0,0,1,1107.6666666666665,3.1666666666667425) translate(35.67578125 71.79340277777777)"/><path d="M1630.87-5.23a8 8 0 0 1 9.6 0l70.4 52.8a4.5 4.5 0 0 1 0 7.2l-70.4 52.8a8 8 0 0 1-9.6 0l-70.4-52.8a4.5 4.5 0 0 1 0-7.2z" stroke="#6db1ff" stroke-width="2" fill="#edf5ff"/><use xlink:href="#I" transform="matrix(1,0,0,1,1560.6666666666665,-3.8333333333332575) translate(8.865017361111114 46.950954861111114)"/><use xlink:href="#J" transform="matrix(1,0,0,1,1560.6666666666665,-3.8333333333332575) translate(63.96484375 46.950954861111114)"/><use xlink:href="#H" transform="matrix(1,0,0,1,1560.6666666666665,-3.8333333333332575) translate(42.67578125 79.21657986111111)"/><path d="M3071.07 1111.17h24.6v5.4h-24.6v24.6h-5.4v-24.6h-24.6v-5.4h24.6v-24.6h5.4v24.6zm-90 24.6v-43.68h43.68v43.67h-43.68zm46.44-49.2h-49.07c-1.56 0-2.76 1.32-2.76 2.76v49.08c0 1.57 1.2 2.77 2.76 2.77h49.08c1.45 0 2.77-1.2 2.77-2.76v-49.07c0-1.44-1.32-2.76-2.76-2.76zm19.1-16.32v-43.68h43.67v43.68h-43.68zm46.3-49.08h-49.07c-1.44 0-2.76 1.2-2.76 2.76V1073c0 1.45 1.32 2.77 2.76 2.77h49.08c1.57 0 2.77-1.32 2.77-2.76v-49.07c0-1.56-1.2-2.76-2.76-2.76zm-111.83 49.08v-43.68h43.68v43.68h-43.68zm46.44-49.08h-49.07c-1.56 0-2.76 1.2-2.76 2.76V1073c0 1.45 1.2 2.77 2.76 2.77h49.08c1.45 0 2.77-1.32 2.77-2.76v-49.07c0-1.56-1.32-2.76-2.76-2.76z" stroke="#000" stroke-opacity="0" fill="#232f3e"/><use xlink:href="#K" transform="matrix(1,0,0,1,2945.6666666666665,1150.1666666666667) translate(13.258463541666671 21.52777777777778)"/><use xlink:href="#L" transform="matrix(1,0,0,1,2945.6666666666665,1150.1666666666667) translate(87.79188368055556 21.52777777777778)"/><use xlink:href="#M" transform="matrix(1,0,0,1,2945.6666666666665,1150.1666666666667) translate(15.461154513888886 53.79340277777778)"/><use xlink:href="#N" transform="matrix(1,0,0,1,2945.6666666666665,1150.1666666666667) translate(48.16514756944444 53.79340277777778)"/><path d="M276.14 1075.15l.07.88.2.84.35.8.45.74.56.67.66.57.74.45.8.32.84.2.88.07h2677.6v.94H281.65l-1-.08-.98-.23-.94-.4-.87-.52-.77-.65-.67-.78-.53-.86-.4-.93-.23-1-.08-1V176.44h.94zm0-952.98h-.95v-10.5h.94z" stroke="#3a414a" stroke-width=".05" fill="#3a414a"/><path d="M276.14 111.68h-.95v-.53l.47.02.47-.02z" fill="#3a414a"/><path stroke="#3a414a" stroke-width=".05" fill="#3a414a"/><path d="M2974.05 1081.17l-14.27 4.63v-9.27z" fill="#3a414a"/><path d="M2975.6 1081.17l-16.3 5.3v-10.6zm-15.34 3.98l12.25-3.98-12.24-4z" stroke="#3a414a" stroke-width=".05" fill="#3a414a"/><path d="M-503.83 51.17h283.1" stroke="#3a414a" fill="none"/><path d="M-503.82 51.64h-.53l.02-.47-.02-.48h.53z" stroke="#3a414a" stroke-width=".05" fill="#3a414a"/><path d="M-205.95 51.17l-14.27 4.63v-9.27z" stroke="#3a414a" fill="#3a414a"/><path d="M-83.83 51.17h283.1" stroke="#3a414a" fill="none"/><path d="M-83.82 51.64h-.5v-.95h.5z" stroke="#3a414a" stroke-width=".05" fill="#3a414a"/><path d="M214.05 51.17l-14.27 4.63v-9.27z" stroke="#3a414a" fill="#3a414a"/><path d="M336.17 51.17h282.1" stroke="#3a414a" fill="none"/><path d="M336.18 51.64h-.53l.02-.47-.02-.48h.53z" stroke="#3a414a" stroke-width=".05" fill="#3a414a"/><path d="M633.05 51.17l-14.27 4.63v-9.27z" stroke="#3a414a" fill="#3a414a"/><path d="M797.17 51.17h281.1" stroke="#3a414a" fill="none"/><path d="M797.18 51.64h-.5v-.95h.5z" stroke="#3a414a" stroke-width=".05" fill="#3a414a"/><path d="M1093.05 51.17l-14.27 4.63v-9.27z" stroke="#3a414a" fill="#3a414a"/><path d="M1257.17 51.17h284.1" stroke="#3a414a" fill="none"/><path d="M1257.18 51.64h-.5v-.95h.5z" stroke="#3a414a" stroke-width=".05" fill="#3a414a"/><path d="M1556.04 51.17l-14.26 4.63v-9.27z" stroke="#3a414a" fill="#3a414a"/><path d="M1714.17 51.17h390.1" stroke="#3a414a" fill="none"/><path d="M1714.18 51.64h-.55l.04-.47-.04-.48h.55z" stroke="#3a414a" stroke-width=".05" fill="#3a414a"/><path d="M2119.05 51.17l-14.27 4.63v-9.27z" stroke="#3a414a" fill="#3a414a"/><path d="M1635.67 110.67v604.5a6 6 0 0 0 6 6h762.6" stroke="#3a414a" fill="none"/><path d="M1635.67 110.17l.47-.03v.54h-.95v-.54z" stroke="#3a414a" stroke-width=".05" fill="#3a414a"/><path d="M2419.05 721.17l-14.27 4.63v-9.27z" stroke="#3a414a" fill="#3a414a"/><path d="M276.14 1075.15l.07.88.2.84.35.8.45.74.56.67.66.57.74.45.8.32.84.2.88.07h1577.97l.88-.08.84-.2.8-.33.74-.46.67-.57.57-.66.45-.73.32-.8.2-.84.07-.88v-808l.07-1 .24-.98.4-.94.53-.87.66-.77.76-.67.87-.53.93-.4 1-.23 1-.08h303l.87-.08.84-.2.8-.33.74-.47.67-.56.57-.66.45-.73.32-.8.2-.84.07-.88v-74.72h.94v74.75l-.08 1-.23 1-.4.93-.52.87-.65.78-.78.66-.86.54-.93.4-1 .22-1 .08h-303l-.87.07-.84.2-.8.35-.74.45-.66.56-.56.66-.46.74-.33.8-.2.84-.06.88v808l-.08 1-.23 1-.4.93-.52.87-.65.78-.78.66-.86.54-.93.4-1 .22-1 .08H281.66l-1-.08-.98-.23-.94-.4-.87-.52-.77-.65-.67-.78-.53-.86-.4-.93-.23-1-.08-1V176.44h.94zm0-952.98h-.95v-10.5h.94z" stroke="#3a414a" stroke-width=".05" fill="#3a414a"/><path d="M276.14 111.68h-.95v-.53l.47.02.47-.02z" fill="#3a414a"/><path stroke="#3a414a" stroke-width=".05" fill="#3a414a"/><path d="M2184.04 123.17h-6.75l3.37-10.4z" fill="#3a414a"/><path d="M2184.54 123.17h-1l-2.87-8.85-2.88 8.85h-1l3.87-11.92zM276.14 1075.15l.07.88.2.84.35.8.45.74.56.67.66.57.74.45.8.32.84.2.88.07h1577.97l.88-.08.84-.2.8-.33.74-.46.67-.57.57-.66.45-.73.32-.8.2-.84.07-.88v-198l.07-1 .24-1 .4-.92.53-.87.66-.77.76-.67.87-.53.93-.4 1-.23 1-.08h393l.87-.08.84-.2.8-.33.74-.47.67-.56.57-.66.45-.73.32-.8.2-.84.07-.88v-98l.07-1 .24-1 .4-.92.53-.87.66-.77.76-.67.87-.53.93-.4 1-.23 1-.08h127.62v.94h-127.6l-.88.07-.84.2-.8.35-.74.45-.66.56-.56.66-.45.74-.34.8-.2.84-.06.88v98l-.08 1-.23 1-.4.93-.52.87-.65.78-.78.66-.86.54-.93.4-1 .22-1 .08h-393l-.87.07-.84.2-.8.35-.74.45-.66.56-.56.66-.46.74-.33.8-.2.84-.06.88v198l-.08 1-.23 1-.4.93-.52.87-.65.78-.78.66-.86.54-.93.4-1 .22-1 .08H281.66l-1-.08-.98-.23-.94-.4-.87-.52-.77-.65-.67-.78-.53-.86-.4-.93-.23-1-.08-1V176.44h.94zm0-952.98h-.95v-10.5h.94z" stroke="#3a414a" stroke-width=".05" fill="#3a414a"/><path d="M276.14 111.68h-.95v-.53l.47.02.47-.02z" fill="#3a414a"/><path stroke="#3a414a" stroke-width=".05" fill="#3a414a"/><path d="M2419.05 761.17l-14.27 4.63v-9.27z" fill="#3a414a"/><path d="M2420.6 761.17l-16.3 5.3v-10.6zm-15.34 3.98l12.25-3.98-12.24-4z" stroke="#3a414a" stroke-width=".05" fill="#3a414a"/><defs><path fill="#fff" d="M52 0l541-1490h220L1361 0h-200l-149-416H398L254 0H52zm404-582h497c-103-290-145-390-251-756-108 377-145 460-246 756" id="O"/><path fill="#fff" d="M458 0L52-1490h194c108 439 233 855 324 1313 92-459 221-873 331-1313h216c110 438 234 854 330 1307 92-455 216-869 323-1307h196L1558 0h-221l-256-944c-26-95-50-200-73-331-22 122-44 223-73 331L680 0H458" id="P"/><path fill="#fff" d="M657 26c-323 0-524-166-541-416h195c15 169 171 246 346 246 202 0 356-106 356-265 5-203-294-238-475-293-239-73-380-191-380-389 0-252 224-419 512-419 294 0 499 171 508 396H992c-17-145-151-228-328-228-193 0-321 102-321 242 0 156 175 211 284 241l149 41c160 44 422 134 422 412 0 244-197 432-541 432" id="Q"/><g id="a"><use transform="matrix(0.008173828125000001,0,0,0.008173828125000001,0,0)" xlink:href="#O"/><use transform="matrix(0.008173828125000001,0,0,0.008173828125000001,10.601455078125001,0)" xlink:href="#P"/><use transform="matrix(0.008173828125000001,0,0,0.008173828125000001,27.096240234375003,0)" xlink:href="#Q"/></g><path fill="#fff" d="M158 0v-1118h174v172h12c41-113 157-188 290-188 26 0 70 2 91 3v181c-11-2-60-10-108-10-161 0-279 109-279 260V0H158" id="R"/><path fill="#fff" d="M613 24c-304 0-509-231-509-576 0-350 205-580 509-580 216 0 392 114 453 309l-173 49c-33-115-133-197-280-197-223 0-326 196-326 419 0 220 103 415 326 415 150 0 252-85 285-206l172 49C1010-95 832 24 613 24" id="S"/><path fill="#fff" d="M338-670V0H158v-1490h180v566c73-149 190-208 336-208 226 0 379 139 379 422V0H872v-695c0-172-96-275-252-275-161 0-282 109-282 300" id="T"/><path fill="#fff" d="M158 0v-1118h180V0H158zm91-1301c-68 0-125-53-125-119s57-119 125-119c69 0 126 53 126 119s-57 119-126 119" id="U"/><path fill="#fff" d="M598-1118v154H368v674c0 100 37 144 132 144 23 0 62-6 92-12L629-6c-37 13-88 20-134 20-193 0-307-107-307-290v-688H20v-154h168v-266h180v266h230" id="V"/><path fill="#fff" d="M628 24c-324 0-524-230-524-574 0-343 198-582 503-582 237 0 487 146 487 559v75H286c9 234 145 362 343 362 132 0 231-58 273-172l174 48C1024-91 857 24 628 24zM287-650h624c-17-190-120-322-304-322-192 0-309 151-320 322" id="W"/><path fill="#fff" d="M537 14c-226 0-379-139-379-422v-710h180v695c0 172 97 275 253 275 160 0 281-109 281-300v-670h181V0H879v-209C806-46 684 14 537 14" id="X"/><g id="b"><use transform="matrix(0.008173828125000001,0,0,0.008173828125000001,0,0)" xlink:href="#O"/><use transform="matrix(0.008173828125000001,0,0,0.008173828125000001,11.549619140625001,0)" xlink:href="#R"/><use transform="matrix(0.008173828125000001,0,0,0.008173828125000001,17.57373046875,0)" xlink:href="#S"/><use transform="matrix(0.008173828125000001,0,0,0.008173828125000001,27.137109375000005,0)" xlink:href="#T"/><use transform="matrix(0.008173828125000001,0,0,0.008173828125000001,37.035615234375,0)" xlink:href="#U"/><use transform="matrix(0.008173828125000001,0,0,0.008173828125000001,41.089833984375005,0)" xlink:href="#V"/><use transform="matrix(0.008173828125000001,0,0,0.008173828125000001,46.402822265625005,0)" xlink:href="#W"/><use transform="matrix(0.008173828125000001,0,0,0.008173828125000001,56.162373046875004,0)" xlink:href="#S"/><use transform="matrix(0.008173828125000001,0,0,0.008173828125000001,65.72575195312501,0)" xlink:href="#V"/><use transform="matrix(0.008173828125000001,0,0,0.008173828125000001,71.202216796875,0)" xlink:href="#X"/><use transform="matrix(0.008173828125000001,0,0,0.008173828125000001,81.10072265625001,0)" xlink:href="#R"/><use transform="matrix(0.008173828125000001,0,0,0.008173828125000001,87.12483398437502,0)" xlink:href="#W"/></g><path fill="#fff" d="M409 0L70-1118h191c89 329 165 560 243 925 75-353 154-601 240-925h192c85 325 161 564 235 922 77-354 157-598 244-922h191L1267 0h-179c-86-307-176-590-250-913C763-588 675-308 588 0H409" id="Y"/><g id="c"><use transform="matrix(0.008173828125000001,0,0,0.008173828125000001,0,0)" xlink:href="#Y"/><use transform="matrix(0.008173828125000001,0,0,0.008173828125000001,13.6993359375,0)" xlink:href="#U"/><use transform="matrix(0.008173828125000001,0,0,0.008173828125000001,17.7535546875,0)" xlink:href="#V"/><use transform="matrix(0.008173828125000001,0,0,0.008173828125000001,23.230019531249997,0)" xlink:href="#T"/></g><path fill="#fff" d="M600 0L52-1490h200c166 485 304 806 458 1336 156-533 285-846 449-1336h202L819 0H600" id="Z"/><path fill="#fff" d="M180 0v-1490h510c348 0 508 209 508 474 0 266-160 477-507 477H370V0H180zm190-706h312c236 0 327-133 327-310 0-176-91-307-329-307H370v617" id="aa"/><path fill="#fff" d="M783 20c-382 0-661-292-661-764 0-473 279-766 661-766 302 0 548 182 601 489h-190c-42-204-217-313-411-313-268 0-476 208-476 590 0 381 209 588 476 588 195 0 369-110 411-313h190c-52 303-296 489-601 489" id="ab"/><path fill="#fff" d="M128 359l88-567h206L266 359H128" id="ac"/><g id="d"><use transform="matrix(0.008173828125000001,0,0,0.008173828125000001,0,0)" xlink:href="#Z"/><use transform="matrix(0.008173828125000001,0,0,0.008173828125000001,11.549619140625001,0)" xlink:href="#aa"/><use transform="matrix(0.008173828125000001,0,0,0.008173828125000001,22.240986328125004,0)" xlink:href="#ab"/><use transform="matrix(0.008173828125000001,0,0,0.008173828125000001,34.469033203125015,0)" xlink:href="#ac"/></g><path fill="#fff" d="M677 24c-213 0-288-135-325-197h-20V0H158v-1490h180v551h14c37-59 106-193 324-193 279 0 474 222 474 576 0 356-194 580-473 580zm-27-161c209 0 317-186 317-421 0-232-105-413-317-413-206 0-314 166-314 413 0 249 111 421 314 421" id="ad"/><path fill="#fff" d="M338-670V0H158v-1118h173l1 207c72-158 192-221 342-221 226 0 378 139 378 422V0H872v-695c0-172-96-275-252-275-161 0-282 109-282 300" id="ae"/><path fill="#fff" d="M538 24C308 24 148-78 108-271l171-41c32 123 123 178 257 178 156 0 256-77 256-169 0-77-54-128-164-154l-186-44c-203-48-300-148-300-305 0-192 176-326 414-326 230 0 351 112 402 269l-163 42c-31-80-94-158-238-158-133 0-233 69-233 162 0 83 57 129 188 160l169 40c203 48 298 149 298 302 0 196-179 339-441 339" id="af"/><g id="e"><use transform="matrix(0.008173828125000001,0,0,0.008173828125000001,0,0)" xlink:href="#Q"/><use transform="matrix(0.008173828125000001,0,0,0.008173828125000001,10.740410156250002,0)" xlink:href="#X"/><use transform="matrix(0.008173828125000001,0,0,0.008173828125000001,20.638916015625004,0)" xlink:href="#ad"/><use transform="matrix(0.008173828125000001,0,0,0.008173828125000001,30.888896484375003,0)" xlink:href="#ae"/><use transform="matrix(0.008173828125000001,0,0,0.008173828125000001,40.77922851562501,0)" xlink:href="#W"/><use transform="matrix(0.008173828125000001,0,0,0.008173828125000001,50.538779296875006,0)" xlink:href="#V"/><use transform="matrix(0.008173828125000001,0,0,0.008173828125000001,55.851767578125006,0)" xlink:href="#af"/><use transform="matrix(0.008173828125000001,0,0,0.008173828125000001,64.68767578125001,0)" xlink:href="#ac"/></g><path fill="#fff" d="M471 26C259 26 90-98 90-318c0-256 228-303 435-329 202-27 287-16 287-108 0-139-79-219-234-219-161 0-248 86-283 164l-173-57c86-203 278-265 451-265 150 0 419 46 419 395V0H815v-152h-12C765-73 660 26 471 26zm31-159c199 0 310-134 310-271v-155c-30 35-226 55-295 64-131 17-246 59-246 186 0 116 97 176 231 176" id="ag"/><path fill="#fff" d="M577 24c-279 0-473-224-473-580 0-354 195-576 474-576 218 0 287 134 324 193h14v-551h180V0H922v-173h-20C865-111 790 24 577 24zm27-161c203 0 314-172 314-421 0-247-108-413-314-413-212 0-317 181-317 413 0 235 108 421 317 421" id="ah"/><g id="f"><use transform="matrix(0.008173828125000001,0,0,0.008173828125000001,0,0)" xlink:href="#ag"/><use transform="matrix(0.008173828125000001,0,0,0.008173828125000001,9.399902343750002,0)" xlink:href="#ae"/><use transform="matrix(0.008173828125000001,0,0,0.008173828125000001,19.290234375000004,0)" xlink:href="#ah"/></g><path fill="#fff" d="M613 24c-304 0-509-231-509-576 0-350 205-580 509-580 305 0 511 230 511 580 0 345-206 576-511 576zm0-161c226 0 329-195 329-415 0-222-103-419-329-419-223 0-326 196-326 419 0 220 103 415 326 415" id="ai"/><g id="g"><use transform="matrix(0.008173828125000001,0,0,0.008173828125000001,0,0)" xlink:href="#O"/><use transform="matrix(0.008173828125000001,0,0,0.008173828125000001,11.549619140625001,0)" xlink:href="#X"/><use transform="matrix(0.008173828125000001,0,0,0.008173828125000001,21.448125000000005,0)" xlink:href="#V"/><use transform="matrix(0.008173828125000001,0,0,0.008173828125000001,26.761113281250005,0)" xlink:href="#ai"/></g><path fill="#fff" d="M338-1490V0H158v-1490h180" id="aj"/><path fill="#fff" d="M611 442c-248 0-391-105-460-228l146-94c47 65 117 165 314 165 178 0 307-82 307-266v-224h-17C863-141 792-18 576-18c-268 0-472-195-472-546 0-346 197-568 476-568 216 0 288 133 326 193h17v-179h175V29c0 289-215 413-487 413zm-5-620c203 0 314-146 314-390 0-237-108-403-314-403-213 0-319 180-319 403 0 230 109 390 319 390" id="ak"/><g id="h"><use transform="matrix(0.008173828125000001,0,0,0.008173828125000001,0,0)" xlink:href="#Q"/><use transform="matrix(0.008173828125000001,0,0,0.008173828125000001,10.740410156250002,0)" xlink:href="#S"/><use transform="matrix(0.008173828125000001,0,0,0.008173828125000001,20.467265625000003,0)" xlink:href="#ag"/><use transform="matrix(0.008173828125000001,0,0,0.008173828125000001,29.867167968750003,0)" xlink:href="#aj"/><use transform="matrix(0.008173828125000001,0,0,0.008173828125000001,33.92138671875,0)" xlink:href="#U"/><use transform="matrix(0.008173828125000001,0,0,0.008173828125000001,37.975605468750004,0)" xlink:href="#ae"/><use transform="matrix(0.008173828125000001,0,0,0.008173828125000001,47.8659375,0)" xlink:href="#ak"/></g><path fill="#fff" d="M180 0v-1490h908v168H370v486h669v168H370v500h727V0H180" id="al"/><path fill="#fff" d="M154 0v-137l495-537c165-179 249-281 249-418 0-156-121-253-280-253-170 0-278 110-278 278H158c0-264 200-443 465-443 266 0 455 183 455 416 0 161-73 288-336 568L416-179v12h687V0H154" id="am"/><g id="i"><use transform="matrix(0.008173828125000001,0,0,0.008173828125000001,0,0)" xlink:href="#al"/><use transform="matrix(0.008173828125000001,0,0,0.008173828125000001,10.061982421875001,0)" xlink:href="#ab"/><use transform="matrix(0.008173828125000001,0,0,0.008173828125000001,22.290029296875005,0)" xlink:href="#am"/></g><path fill="#fff" d="M370-1490V0H180v-1490h190" id="an"/><g id="j"><use transform="matrix(0.008173828125000001,0,0,0.008173828125000001,0,0)" xlink:href="#an"/><use transform="matrix(0.008173828125000001,0,0,0.008173828125000001,4.495605468750001,0)" xlink:href="#ae"/><use transform="matrix(0.008173828125000001,0,0,0.008173828125000001,14.3859375,0)" xlink:href="#af"/><use transform="matrix(0.008173828125000001,0,0,0.008173828125000001,23.221845703125002,0)" xlink:href="#V"/><use transform="matrix(0.008173828125000001,0,0,0.008173828125000001,28.780048828125004,0)" xlink:href="#ag"/><use transform="matrix(0.008173828125000001,0,0,0.008173828125000001,38.179951171875004,0)" xlink:href="#ae"/><use transform="matrix(0.008173828125000001,0,0,0.008173828125000001,48.070283203125,0)" xlink:href="#S"/><use transform="matrix(0.008173828125000001,0,0,0.008173828125000001,57.633662109375,0)" xlink:href="#W"/><use transform="matrix(0.008173828125000001,0,0,0.008173828125000001,67.39321289062501,0)" xlink:href="#af"/></g><path d="M600 0L52-1490h200c166 485 304 806 458 1336 156-533 285-846 449-1336h202L819 0H600" id="ao"/><path d="M180 0v-1490h510c348 0 508 209 508 474 0 266-160 477-507 477H370V0H180zm190-706h312c236 0 327-133 327-310 0-176-91-307-329-307H370v617" id="ap"/><path d="M783 20c-382 0-661-292-661-764 0-473 279-766 661-766 302 0 548 182 601 489h-190c-42-204-217-313-411-313-268 0-476 208-476 590 0 381 209 588 476 588 195 0 369-110 411-313h190c-52 303-296 489-601 489" id="aq"/><g id="k"><use transform="matrix(0.010850694444444444,0,0,0.010850694444444444,0,0)" xlink:href="#ao"/><use transform="matrix(0.010850694444444444,0,0,0.010850694444444444,15.33203125,0)" xlink:href="#ap"/><use transform="matrix(0.010850694444444444,0,0,0.010850694444444444,29.524739583333332,0)" xlink:href="#aq"/></g><path d="M653-1490V0H466v-1314h-10L96-1047v-204l324-239h233" id="ar"/><path d="M646 20c-332 0-524-278-524-764 0-483 194-766 524-766s524 283 524 766c0 485-191 764-524 764zm0-166c218 0 341-220 341-598 0-380-123-601-341-601s-341 222-341 601c0 378 123 598 341 598" id="as"/><path d="M295 13c-75 0-135-60-135-135s60-135 135-135 135 60 135 135S370 13 295 13" id="at"/><path d="M692-1560L212 224H46l480-1784h166" id="au"/><path d="M646 20c-249 0-524-159-524-708 0-524 209-822 547-822 250 0 431 161 467 395H950c-33-129-126-227-281-227-229 0-367 208-367 566h12c80-124 212-198 367-198 255 0 467 205 467 493 0 278-198 501-502 501zm0-167c179 0 318-148 318-334 0-182-133-328-313-328-181 0-322 156-322 330 0 176 134 332 317 332" id="av"/><g id="l"><use transform="matrix(0.010850694444444444,0,0,0.010850694444444444,0,0)" xlink:href="#ar"/><use transform="matrix(0.010850694444444444,0,0,0.010850694444444444,9.038628472222221,0)" xlink:href="#as"/><use transform="matrix(0.010850694444444444,0,0,0.010850694444444444,22.493489583333332,0)" xlink:href="#at"/><use transform="matrix(0.010850694444444444,0,0,0.010850694444444444,28.331163194444443,0)" xlink:href="#as"/><use transform="matrix(0.010850694444444444,0,0,0.010850694444444444,41.78602430555556,0)" xlink:href="#at"/><use transform="matrix(0.010850694444444444,0,0,0.010850694444444444,47.623697916666664,0)" xlink:href="#as"/><use transform="matrix(0.010850694444444444,0,0,0.010850694444444444,61.07855902777778,0)" xlink:href="#at"/><use transform="matrix(0.010850694444444444,0,0,0.010850694444444444,66.91623263888889,0)" xlink:href="#as"/><use transform="matrix(0.010850694444444444,0,0,0.010850694444444444,80.93532986111111,0)" xlink:href="#au"/><use transform="matrix(0.010850694444444444,0,0,0.010850694444444444,88.94314236111111,0)" xlink:href="#ar"/><use transform="matrix(0.010850694444444444,0,0,0.010850694444444444,97.98177083333334,0)" xlink:href="#av"/></g><path d="M537 14c-226 0-379-139-379-422v-710h180v695c0 172 97 275 253 275 160 0 281-109 281-300v-670h181V0H879v-209C806-46 684 14 537 14" id="aw"/><path d="M677 24c-213 0-288-135-325-197h-20V0H158v-1490h180v551h14c37-59 106-193 324-193 279 0 474 222 474 576 0 356-194 580-473 580zm-27-161c209 0 317-186 317-421 0-232-105-413-317-413-206 0-314 166-314 413 0 249 111 421 314 421" id="ax"/><path d="M338-1490V0H158v-1490h180" id="ay"/><path d="M158 0v-1118h180V0H158zm91-1301c-68 0-125-53-125-119s57-119 125-119c69 0 126 53 126 119s-57 119-126 119" id="az"/><path d="M613 24c-304 0-509-231-509-576 0-350 205-580 509-580 216 0 392 114 453 309l-173 49c-33-115-133-197-280-197-223 0-326 196-326 419 0 220 103 415 326 415 150 0 252-85 285-206l172 49C1010-95 832 24 613 24" id="aA"/><g id="m"><use transform="matrix(0.010850694444444444,0,0,0.010850694444444444,0,0)" xlink:href="#ap"/><use transform="matrix(0.010850694444444444,0,0,0.010850694444444444,14.192708333333332,0)" xlink:href="#aw"/><use transform="matrix(0.010850694444444444,0,0,0.010850694444444444,27.332899305555554,0)" xlink:href="#ax"/><use transform="matrix(0.010850694444444444,0,0,0.010850694444444444,40.939670138888886,0)" xlink:href="#ay"/><use transform="matrix(0.010850694444444444,0,0,0.010850694444444444,46.32161458333333,0)" xlink:href="#az"/><use transform="matrix(0.010850694444444444,0,0,0.010850694444444444,51.70355902777778,0)" xlink:href="#aA"/></g><path d="M657 26c-323 0-524-166-541-416h195c15 169 171 246 346 246 202 0 356-106 356-265 5-203-294-238-475-293-239-73-380-191-380-389 0-252 224-419 512-419 294 0 499 171 508 396H992c-17-145-151-228-328-228-193 0-321 102-321 242 0 156 175 211 284 241l149 41c160 44 422 134 422 412 0 244-197 432-541 432" id="aB"/><path d="M338-670V0H158v-1118h173l1 207c72-158 192-221 342-221 226 0 378 139 378 422V0H872v-695c0-172-96-275-252-275-161 0-282 109-282 300" id="aC"/><path d="M628 24c-324 0-524-230-524-574 0-343 198-582 503-582 237 0 487 146 487 559v75H286c9 234 145 362 343 362 132 0 231-58 273-172l174 48C1024-91 857 24 628 24zM287-650h624c-17-190-120-322-304-322-192 0-309 151-320 322" id="aD"/><path d="M598-1118v154H368v674c0 100 37 144 132 144 23 0 62-6 92-12L629-6c-37 13-88 20-134 20-193 0-307-107-307-290v-688H20v-154h168v-266h180v266h230" id="aE"/><g id="n"><use transform="matrix(0.010850694444444444,0,0,0.010850694444444444,0,0)" xlink:href="#aB"/><use transform="matrix(0.010850694444444444,0,0,0.010850694444444444,14.2578125,0)" xlink:href="#aw"/><use transform="matrix(0.010850694444444444,0,0,0.010850694444444444,27.39800347222222,0)" xlink:href="#ax"/><use transform="matrix(0.010850694444444444,0,0,0.010850694444444444,41.00477430555556,0)" xlink:href="#aC"/><use transform="matrix(0.010850694444444444,0,0,0.010850694444444444,54.13411458333333,0)" xlink:href="#aD"/><use transform="matrix(0.010850694444444444,0,0,0.010850694444444444,67.08984375,0)" xlink:href="#aE"/></g><path d="M52 0l541-1490h220L1361 0h-200l-149-416H398L254 0H52zm404-582h497c-103-290-145-390-251-756-108 377-145 460-246 756" id="aF"/><path d="M130 0v-134l666-991c45-67 96-135 147-202-269 9-546 3-821 5v-168h1036v136L502-379c-49 72-103 145-157 216 268-9 546-3 821-5V0H130" id="aG"/><g id="o"><use transform="matrix(0.010850694444444444,0,0,0.010850694444444444,0,0)" xlink:href="#aF"/><use transform="matrix(0.010850694444444444,0,0,0.010850694444444444,15.33203125,0)" xlink:href="#aG"/><use transform="matrix(0.010850694444444444,0,0,0.010850694444444444,29.307725694444443,0)" xlink:href="#ar"/></g><g id="p"><use transform="matrix(0.010850694444444444,0,0,0.010850694444444444,0,0)" xlink:href="#ap"/><use transform="matrix(0.010850694444444444,0,0,0.010850694444444444,14.192708333333332,0)" xlink:href="#aw"/><use transform="matrix(0.010850694444444444,0,0,0.010850694444444444,27.332899305555554,0)" xlink:href="#ax"/><use transform="matrix(0.010850694444444444,0,0,0.010850694444444444,40.939670138888886,0)" xlink:href="#ay"/><use transform="matrix(0.010850694444444444,0,0,0.010850694444444444,46.32161458333333,0)" xlink:href="#az"/><use transform="matrix(0.010850694444444444,0,0,0.010850694444444444,51.70355902777778,0)" xlink:href="#aA"/></g><g id="q"><use transform="matrix(0.010850694444444444,0,0,0.010850694444444444,0,0)" xlink:href="#aB"/><use transform="matrix(0.010850694444444444,0,0,0.010850694444444444,14.2578125,0)" xlink:href="#aw"/><use transform="matrix(0.010850694444444444,0,0,0.010850694444444444,27.39800347222222,0)" xlink:href="#ax"/><use transform="matrix(0.010850694444444444,0,0,0.010850694444444444,41.00477430555556,0)" xlink:href="#aC"/><use transform="matrix(0.010850694444444444,0,0,0.010850694444444444,54.13411458333333,0)" xlink:href="#aD"/><use transform="matrix(0.010850694444444444,0,0,0.010850694444444444,67.08984375,0)" xlink:href="#aE"/></g><path d="M154 0v-137l495-537c165-179 249-281 249-418 0-156-121-253-280-253-170 0-278 110-278 278H158c0-264 200-443 465-443 266 0 455 183 455 416 0 161-73 288-336 568L416-179v12h687V0H154" id="aH"/><g id="r"><use transform="matrix(0.010850694444444444,0,0,0.010850694444444444,0,0)" xlink:href="#aF"/><use transform="matrix(0.010850694444444444,0,0,0.010850694444444444,15.33203125,0)" xlink:href="#aG"/><use transform="matrix(0.010850694444444444,0,0,0.010850694444444444,29.307725694444443,0)" xlink:href="#aH"/></g><path d="M180 0v-1490h908v168H370v486h669v168H370v500h727V0H180" id="aI"/><g id="s"><use transform="matrix(0.010850694444444444,0,0,0.010850694444444444,0,0)" xlink:href="#aI"/><use transform="matrix(0.010850694444444444,0,0,0.010850694444444444,13.35720486111111,0)" xlink:href="#aq"/><use transform="matrix(0.010850694444444444,0,0,0.010850694444444444,29.58984375,0)" xlink:href="#aH"/></g><path d="M370-1490V0H180v-1490h190" id="aJ"/><path d="M538 24C308 24 148-78 108-271l171-41c32 123 123 178 257 178 156 0 256-77 256-169 0-77-54-128-164-154l-186-44c-203-48-300-148-300-305 0-192 176-326 414-326 230 0 351 112 402 269l-163 42c-31-80-94-158-238-158-133 0-233 69-233 162 0 83 57 129 188 160l169 40c203 48 298 149 298 302 0 196-179 339-441 339" id="aK"/><path d="M471 26C259 26 90-98 90-318c0-256 228-303 435-329 202-27 287-16 287-108 0-139-79-219-234-219-161 0-248 86-283 164l-173-57c86-203 278-265 451-265 150 0 419 46 419 395V0H815v-152h-12C765-73 660 26 471 26zm31-159c199 0 310-134 310-271v-155c-30 35-226 55-295 64-131 17-246 59-246 186 0 116 97 176 231 176" id="aL"/><g id="t"><use transform="matrix(0.010850694444444444,0,0,0.010850694444444444,0,0)" xlink:href="#aJ"/><use transform="matrix(0.010850694444444444,0,0,0.010850694444444444,5.967881944444445,0)" xlink:href="#aC"/><use transform="matrix(0.010850694444444444,0,0,0.010850694444444444,19.09722222222222,0)" xlink:href="#aK"/><use transform="matrix(0.010850694444444444,0,0,0.010850694444444444,30.826822916666664,0)" xlink:href="#aE"/><use transform="matrix(0.010850694444444444,0,0,0.010850694444444444,38.205295138888886,0)" xlink:href="#aL"/><use transform="matrix(0.010850694444444444,0,0,0.010850694444444444,50.68359375,0)" xlink:href="#aC"/><use transform="matrix(0.010850694444444444,0,0,0.010850694444444444,63.81293402777778,0)" xlink:href="#aA"/><use transform="matrix(0.010850694444444444,0,0,0.010850694444444444,76.50824652777777,0)" xlink:href="#aD"/></g><path d="M409 0L70-1118h191c89 329 165 560 243 925 75-353 154-601 240-925h192c85 325 161 564 235 922 77-354 157-598 244-922h191L1267 0h-179c-86-307-176-590-250-913C763-588 675-308 588 0H409" id="aM"/><path d="M338-670V0H158v-1490h180v566c73-149 190-208 336-208 226 0 379 139 379 422V0H872v-695c0-172-96-275-252-275-161 0-282 109-282 300" id="aN"/><g id="u"><use transform="matrix(0.010850694444444444,0,0,0.010850694444444444,0,0)" xlink:href="#aM"/><use transform="matrix(0.010850694444444444,0,0,0.010850694444444444,18.18576388888889,0)" xlink:href="#az"/><use transform="matrix(0.010850694444444444,0,0,0.010850694444444444,23.567708333333336,0)" xlink:href="#aE"/><use transform="matrix(0.010850694444444444,0,0,0.010850694444444444,30.837673611111114,0)" xlink:href="#aN"/></g><path d="M158 418v-1536h174v179h20c37-59 106-193 324-193 279 0 474 222 474 576 0 356-194 580-473 580-213 0-288-135-325-197h-14v591H158zm492-555c209 0 317-186 317-421 0-232-105-413-317-413-206 0-314 166-314 413 0 249 111 421 314 421" id="aO"/><g id="v"><use transform="matrix(0.010850694444444444,0,0,0.010850694444444444,0,0)" xlink:href="#aF"/><use transform="matrix(0.010850694444444444,0,0,0.010850694444444444,15.33203125,0)" xlink:href="#aO"/><use transform="matrix(0.010850694444444444,0,0,0.010850694444444444,29.15581597222222,0)" xlink:href="#aL"/><use transform="matrix(0.010850694444444444,0,0,0.010850694444444444,41.63411458333333,0)" xlink:href="#aA"/><use transform="matrix(0.010850694444444444,0,0,0.010850694444444444,54.32942708333333,0)" xlink:href="#aN"/><use transform="matrix(0.010850694444444444,0,0,0.010850694444444444,67.46961805555554,0)" xlink:href="#aD"/></g><path d="M158 0v-1118h174v172h12c41-113 157-188 290-188 26 0 70 2 91 3v181c-11-2-60-10-108-10-161 0-279 109-279 260V0H158" id="aP"/><g id="w"><use transform="matrix(0.010850694444444444,0,0,0.010850694444444444,0,0)" xlink:href="#aJ"/><use transform="matrix(0.010850694444444444,0,0,0.010850694444444444,5.967881944444445,0)" xlink:href="#aC"/><use transform="matrix(0.010850694444444444,0,0,0.010850694444444444,19.09722222222222,0)" xlink:href="#aE"/><use transform="matrix(0.010850694444444444,0,0,0.010850694444444444,26.15017361111111,0)" xlink:href="#aD"/><use transform="matrix(0.010850694444444444,0,0,0.010850694444444444,39.10590277777778,0)" xlink:href="#aP"/><use transform="matrix(0.010850694444444444,0,0,0.010850694444444444,47.819010416666664,0)" xlink:href="#aC"/><use transform="matrix(0.010850694444444444,0,0,0.010850694444444444,60.94835069444444,0)" xlink:href="#aD"/><use transform="matrix(0.010850694444444444,0,0,0.010850694444444444,73.90407986111111,0)" xlink:href="#aE"/></g><path d="M789 20c-398 0-667-293-667-764 0-473 273-766 655-766 315 0 558 198 612 487h-196c-61-191-204-311-415-311-262 0-471 207-471 590 0 380 208 588 482 588 249 0 420-165 425-427H828v-166h572v163c0 370-256 606-611 606" id="aQ"/><path d="M140 405l46-156c120 36 205 19 263-150l32-93L54-1118h197c107 313 237 620 324 950 87-331 219-637 326-950h196L606 167c-68 178-176 259-334 259-64 0-113-12-132-21" id="aR"/><g id="x"><use transform="matrix(0.010850694444444444,0,0,0.010850694444444444,0,0)" xlink:href="#aQ"/><use transform="matrix(0.010850694444444444,0,0,0.010850694444444444,16.57986111111111,0)" xlink:href="#aL"/><use transform="matrix(0.010850694444444444,0,0,0.010850694444444444,29.05815972222222,0)" xlink:href="#aE"/><use transform="matrix(0.010850694444444444,0,0,0.010850694444444444,36.11111111111111,0)" xlink:href="#aD"/><use transform="matrix(0.010850694444444444,0,0,0.010850694444444444,48.66536458333333,0)" xlink:href="#aM"/><use transform="matrix(0.010850694444444444,0,0,0.010850694444444444,66.85112847222221,0)" xlink:href="#aL"/><use transform="matrix(0.010850694444444444,0,0,0.010850694444444444,79.00390625,0)" xlink:href="#aR"/></g><path d="M180 0v-1490h510c348 0 508 194 508 460 0 198-88 351-276 417L1256 0h-220L726-579c-117 2-238 0-356 1V0H180zm190-747h312c235 0 327-108 327-283 0-177-92-293-329-293H370v576" id="aS"/><path d="M613 24c-304 0-509-231-509-576 0-350 205-580 509-580 305 0 511 230 511 580 0 345-206 576-511 576zm0-161c226 0 329-195 329-415 0-222-103-419-329-419-223 0-326 196-326 419 0 220 103 415 326 415" id="aT"/><g id="y"><use transform="matrix(0.010850694444444444,0,0,0.010850694444444444,0,0)" xlink:href="#aS"/><use transform="matrix(0.010850694444444444,0,0,0.010850694444444444,13.975694444444445,0)" xlink:href="#aT"/><use transform="matrix(0.010850694444444444,0,0,0.010850694444444444,27.30034722222222,0)" xlink:href="#aw"/><use transform="matrix(0.010850694444444444,0,0,0.010850694444444444,40.44053819444444,0)" xlink:href="#aE"/><use transform="matrix(0.010850694444444444,0,0,0.010850694444444444,47.49348958333333,0)" xlink:href="#aD"/></g><path d="M98-1322v-168h1126v168H757V0H567v-1322H98" id="aU"/><g id="z"><use transform="matrix(0.010850694444444444,0,0,0.010850694444444444,0,0)" xlink:href="#aU"/><use transform="matrix(0.010850694444444444,0,0,0.010850694444444444,12.71701388888889,0)" xlink:href="#aL"/><use transform="matrix(0.010850694444444444,0,0,0.010850694444444444,25.1953125,0)" xlink:href="#ax"/><use transform="matrix(0.010850694444444444,0,0,0.010850694444444444,38.80208333333333,0)" xlink:href="#ay"/><use transform="matrix(0.010850694444444444,0,0,0.010850694444444444,44.18402777777777,0)" xlink:href="#aD"/></g><g id="A"><use transform="matrix(0.010850694444444444,0,0,0.010850694444444444,0,0)" xlink:href="#aF"/><use transform="matrix(0.010850694444444444,0,0,0.010850694444444444,15.33203125,0)" xlink:href="#aO"/><use transform="matrix(0.010850694444444444,0,0,0.010850694444444444,28.938802083333332,0)" xlink:href="#aO"/><use transform="matrix(0.010850694444444444,0,0,0.010850694444444444,42.545572916666664,0)" xlink:href="#ay"/><use transform="matrix(0.010850694444444444,0,0,0.010850694444444444,47.92751736111111,0)" xlink:href="#az"/><use transform="matrix(0.010850694444444444,0,0,0.010850694444444444,53.30946180555556,0)" xlink:href="#aA"/><use transform="matrix(0.010850694444444444,0,0,0.010850694444444444,66.22178819444443,0)" xlink:href="#aL"/><use transform="matrix(0.010850694444444444,0,0,0.010850694444444444,78.70008680555554,0)" xlink:href="#aE"/><use transform="matrix(0.010850694444444444,0,0,0.010850694444444444,85.97005208333331,0)" xlink:href="#az"/><use transform="matrix(0.010850694444444444,0,0,0.010850694444444444,91.35199652777776,0)" xlink:href="#aT"/><use transform="matrix(0.010850694444444444,0,0,0.010850694444444444,104.67664930555553,0)" xlink:href="#aC"/></g><path d="M180 0v-1490h190v1322h690V0H180" id="aV"/><path d="M577 24c-279 0-473-224-473-580 0-354 195-576 474-576 218 0 287 134 324 193h14v-551h180V0H922v-173h-20C865-111 790 24 577 24zm27-161c203 0 314-172 314-421 0-247-108-413-314-413-212 0-317 181-317 413 0 235 108 421 317 421" id="aW"/><g id="B"><use transform="matrix(0.010850694444444444,0,0,0.010850694444444444,0,0)" xlink:href="#aV"/><use transform="matrix(0.010850694444444444,0,0,0.010850694444444444,12.565104166666666,0)" xlink:href="#aT"/><use transform="matrix(0.010850694444444444,0,0,0.010850694444444444,26.106770833333332,0)" xlink:href="#aL"/><use transform="matrix(0.010850694444444444,0,0,0.010850694444444444,38.58506944444444,0)" xlink:href="#aW"/></g><path d="M180 0v-1490h528c311 0 458 177 458 395 0 191-114 278-244 313v14c139 9 302 137 302 371 0 225-148 397-499 397H180zm190-168h350c232 0 321-102 321-231 0-149-120-277-311-277H370v508zm0-668h328c160 0 286-101 286-255 0-129-87-231-280-231H370v486" id="aX"/><g id="C"><use transform="matrix(0.010850694444444444,0,0,0.010850694444444444,0,0)" xlink:href="#aX"/><use transform="matrix(0.010850694444444444,0,0,0.010850694444444444,14.539930555555555,0)" xlink:href="#aL"/><use transform="matrix(0.010850694444444444,0,0,0.010850694444444444,27.018229166666664,0)" xlink:href="#ay"/><use transform="matrix(0.010850694444444444,0,0,0.010850694444444444,32.40017361111111,0)" xlink:href="#aL"/><use transform="matrix(0.010850694444444444,0,0,0.010850694444444444,44.87847222222221,0)" xlink:href="#aC"/><use transform="matrix(0.010850694444444444,0,0,0.010850694444444444,58.007812499999986,0)" xlink:href="#aA"/><use transform="matrix(0.010850694444444444,0,0,0.010850694444444444,70.703125,0)" xlink:href="#aD"/><use transform="matrix(0.010850694444444444,0,0,0.010850694444444444,83.65885416666667,0)" xlink:href="#aP"/></g><g id="D"><use transform="matrix(0.010850694444444444,0,0,0.010850694444444444,0,0)" xlink:href="#aB"/><use transform="matrix(0.010850694444444444,0,0,0.010850694444444444,14.2578125,0)" xlink:href="#aD"/><use transform="matrix(0.010850694444444444,0,0,0.010850694444444444,27.213541666666664,0)" xlink:href="#aA"/><use transform="matrix(0.010850694444444444,0,0,0.010850694444444444,39.908854166666664,0)" xlink:href="#aw"/><use transform="matrix(0.010850694444444444,0,0,0.010850694444444444,53.049045138888886,0)" xlink:href="#aP"/><use transform="matrix(0.010850694444444444,0,0,0.010850694444444444,61.76215277777778,0)" xlink:href="#az"/><use transform="matrix(0.010850694444444444,0,0,0.010850694444444444,67.14409722222221,0)" xlink:href="#aE"/><use transform="matrix(0.010850694444444444,0,0,0.010850694444444444,74.84809027777776,0)" xlink:href="#aR"/></g><g id="E"><use transform="matrix(0.010850694444444444,0,0,0.010850694444444444,0,0)" xlink:href="#aQ"/><use transform="matrix(0.010850694444444444,0,0,0.010850694444444444,16.57986111111111,0)" xlink:href="#aP"/><use transform="matrix(0.010850694444444444,0,0,0.010850694444444444,24.576822916666664,0)" xlink:href="#aT"/><use transform="matrix(0.010850694444444444,0,0,0.010850694444444444,37.90147569444444,0)" xlink:href="#aw"/><use transform="matrix(0.010850694444444444,0,0,0.010850694444444444,51.041666666666664,0)" xlink:href="#aO"/></g><path d="M218-607c0-325 108-727 258-974h175c-155 315-250 682-250 974 0 265 78 531 250 886H476C306-10 218-315 218-607" id="aY"/><path d="M180 0v-1490h190v644h782v-644h190V0h-190v-678H370V0H180" id="aZ"/><path d="M295 13c-75 0-135-60-135-135s60-135 135-135 135 60 135 135S370 13 295 13zm0-809c-75 0-135-60-135-135s60-135 135-135 135 60 135 135-60 135-135 135" id="ba"/><path d="M633 20c-303 0-511-173-511-416 0-188 124-348 291-378v-8c-145-37-237-174-237-332 0-227 192-396 457-396 261 0 456 169 456 396 0 158-94 295-235 332v8c162 30 291 190 291 378 0 243-212 416-512 416zm0-165c197 0 322-103 322-261 0-165-138-283-322-283-188 0-324 118-324 283 0 158 123 261 324 261zm0-703c157 0 272-101 272-252 0-149-110-246-272-246-165 0-273 97-273 246 0 151 112 252 273 252" id="bb"/><path d="M96 279C273-86 346-350 346-607c0-292-95-659-250-974h175c150 246 258 650 258 974 0 297-91 602-258 886H96" id="bc"/><g id="F"><use transform="matrix(0.010850694444444444,0,0,0.010850694444444444,0,0)" xlink:href="#aY"/><use transform="matrix(0.010850694444444444,0,0,0.010850694444444444,8.10546875,0)" xlink:href="#aZ"/><use transform="matrix(0.010850694444444444,0,0,0.010850694444444444,24.620225694444443,0)" xlink:href="#aU"/><use transform="matrix(0.010850694444444444,0,0,0.010850694444444444,38.96484375,0)" xlink:href="#aU"/><use transform="matrix(0.010850694444444444,0,0,0.010850694444444444,53.30946180555556,0)" xlink:href="#ap"/><use transform="matrix(0.010850694444444444,0,0,0.010850694444444444,67.50217013888889,0)" xlink:href="#ba"/><use transform="matrix(0.010850694444444444,0,0,0.010850694444444444,73.90407986111111,0)" xlink:href="#bb"/><use transform="matrix(0.010850694444444444,0,0,0.010850694444444444,87.65190972222223,0)" xlink:href="#as"/><use transform="matrix(0.010850694444444444,0,0,0.010850694444444444,101.67100694444446,0)" xlink:href="#bc"/></g><path d="M611 442c-248 0-391-105-460-228l146-94c47 65 117 165 314 165 178 0 307-82 307-266v-224h-17C863-141 792-18 576-18c-268 0-472-195-472-546 0-346 197-568 476-568 216 0 288 133 326 193h17v-179h175V29c0 289-215 413-487 413zm-5-620c203 0 314-146 314-390 0-237-108-403-314-403-213 0-319 180-319 403 0 230 109 390 319 390" id="bd"/><g id="G"><use transform="matrix(0.010850694444444444,0,0,0.010850694444444444,0,0)" xlink:href="#aU"/><use transform="matrix(0.010850694444444444,0,0,0.010850694444444444,12.71701388888889,0)" xlink:href="#aL"/><use transform="matrix(0.010850694444444444,0,0,0.010850694444444444,25.1953125,0)" xlink:href="#aP"/><use transform="matrix(0.010850694444444444,0,0,0.010850694444444444,33.19227430555556,0)" xlink:href="#bd"/><use transform="matrix(0.010850694444444444,0,0,0.010850694444444444,46.82074652777778,0)" xlink:href="#aD"/><use transform="matrix(0.010850694444444444,0,0,0.010850694444444444,59.77647569444444,0)" xlink:href="#aE"/></g><g id="H"><use transform="matrix(0.010850694444444444,0,0,0.010850694444444444,0,0)" xlink:href="#aQ"/><use transform="matrix(0.010850694444444444,0,0,0.010850694444444444,16.57986111111111,0)" xlink:href="#aP"/><use transform="matrix(0.010850694444444444,0,0,0.010850694444444444,24.576822916666664,0)" xlink:href="#aT"/><use transform="matrix(0.010850694444444444,0,0,0.010850694444444444,37.90147569444444,0)" xlink:href="#aw"/><use transform="matrix(0.010850694444444444,0,0,0.010850694444444444,51.041666666666664,0)" xlink:href="#aO"/></g><g id="I"><use transform="matrix(0.010850694444444444,0,0,0.010850694444444444,0,0)" xlink:href="#aF"/><use transform="matrix(0.010850694444444444,0,0,0.010850694444444444,15.33203125,0)" xlink:href="#aw"/><use transform="matrix(0.010850694444444444,0,0,0.010850694444444444,28.47222222222222,0)" xlink:href="#aE"/><use transform="matrix(0.010850694444444444,0,0,0.010850694444444444,35.52517361111111,0)" xlink:href="#aT"/></g><g id="J"><use transform="matrix(0.010850694444444444,0,0,0.010850694444444444,0,0)" xlink:href="#aB"/><use transform="matrix(0.010850694444444444,0,0,0.010850694444444444,14.2578125,0)" xlink:href="#aA"/><use transform="matrix(0.010850694444444444,0,0,0.010850694444444444,27.17013888888889,0)" xlink:href="#aL"/><use transform="matrix(0.010850694444444444,0,0,0.010850694444444444,39.6484375,0)" xlink:href="#ay"/><use transform="matrix(0.010850694444444444,0,0,0.010850694444444444,45.03038194444444,0)" xlink:href="#az"/><use transform="matrix(0.010850694444444444,0,0,0.010850694444444444,50.412326388888886,0)" xlink:href="#aC"/><use transform="matrix(0.010850694444444444,0,0,0.010850694444444444,63.541666666666664,0)" xlink:href="#bd"/></g><g id="K"><use transform="matrix(0.010850694444444444,0,0,0.010850694444444444,0,0)" xlink:href="#aZ"/><use transform="matrix(0.010850694444444444,0,0,0.010850694444444444,16.514756944444443,0)" xlink:href="#aD"/><use transform="matrix(0.010850694444444444,0,0,0.010850694444444444,29.6875,0)" xlink:href="#aL"/><use transform="matrix(0.010850694444444444,0,0,0.010850694444444444,42.165798611111114,0)" xlink:href="#ay"/><use transform="matrix(0.010850694444444444,0,0,0.010850694444444444,47.8732638888889,0)" xlink:href="#aE"/><use transform="matrix(0.010850694444444444,0,0,0.010850694444444444,55.14322916666667,0)" xlink:href="#aN"/></g><path d="M158 0v-1490h180v865h22l478-493h223L593-638 1096 0H865L456-523 338-412V0H158" id="be"/><g id="L"><use transform="matrix(0.010850694444444444,0,0,0.010850694444444444,0,0)" xlink:href="#aq"/><use transform="matrix(0.010850694444444444,0,0,0.010850694444444444,16.23263888888889,0)" xlink:href="#aN"/><use transform="matrix(0.010850694444444444,0,0,0.010850694444444444,29.37282986111111,0)" xlink:href="#aD"/><use transform="matrix(0.010850694444444444,0,0,0.010850694444444444,42.32855902777778,0)" xlink:href="#aA"/><use transform="matrix(0.010850694444444444,0,0,0.010850694444444444,55.02387152777778,0)" xlink:href="#be"/><use transform="matrix(0.010850694444444444,0,0,0.010850694444444444,67.22005208333333,0)" xlink:href="#aK"/></g><g id="M"><use transform="matrix(0.010850694444444444,0,0,0.010850694444444444,0,0)" xlink:href="#aT"/><use transform="matrix(0.010850694444444444,0,0,0.010850694444444444,13.324652777777777,0)" xlink:href="#aC"/></g><path d="M65 0l393-574-370-544h210c88 136 192 297 267 435 67-142 176-302 264-435h206L661-564 1053 0H844c-94-144-206-310-287-458C484-308 366-142 273 0H65" id="bf"/><path d="M158 0v-1118h175l1 205c55-151 181-225 313-225 147 0 245 90 285 228 53-141 190-228 352-228 194 0 352 125 352 384V0h-181v-749c0-161-105-225-225-225-151 0-243 103-243 244V0H807v-767c0-124-93-207-219-207-131 0-250 92-250 270V0H158" id="bg"/><g id="N"><use transform="matrix(0.010850694444444444,0,0,0.010850694444444444,0,0)" xlink:href="#au"/><use transform="matrix(0.010850694444444444,0,0,0.010850694444444444,8.0078125,0)" xlink:href="#az"/><use transform="matrix(0.010850694444444444,0,0,0.010850694444444444,13.389756944444445,0)" xlink:href="#aC"/><use transform="matrix(0.010850694444444444,0,0,0.010850694444444444,26.51909722222222,0)" xlink:href="#aW"/><use transform="matrix(0.010850694444444444,0,0,0.010850694444444444,40.12586805555556,0)" xlink:href="#aD"/><use transform="matrix(0.010850694444444444,0,0,0.010850694444444444,52.58246527777778,0)" xlink:href="#bf"/><use transform="matrix(0.010850694444444444,0,0,0.010850694444444444,64.71354166666667,0)" xlink:href="#at"/><use transform="matrix(0.010850694444444444,0,0,0.010850694444444444,71.1154513888889,0)" xlink:href="#aN"/><use transform="matrix(0.010850694444444444,0,0,0.010850694444444444,84.25564236111111,0)" xlink:href="#aE"/><use transform="matrix(0.010850694444444444,0,0,0.010850694444444444,91.52560763888889,0)" xlink:href="#bg"/><use transform="matrix(0.010850694444444444,0,0,0.010850694444444444,110.99175347222221,0)" xlink:href="#ay"/></g></defs></g></svg>
